<?xml version="1.0" encoding="UTF-8"?>
<svg id="Layer_1" data-name="Layer 1" xmlns="http://www.w3.org/2000/svg" version="1.1" viewBox="0 0 4000 1500">
  <defs>
    <style>
      .cls-1 {
        fill: none;
      }

      .cls-1, .cls-2, .cls-3 {
        stroke-width: 0px;
      }

      .cls-2 {
        fill: #fff;
      }

      .cls-3 {
        fill: #231f20;
        fill-rule: evenodd;
      }
    </style>
  </defs>
  <rect class="cls-1" width="4000" height="1500"/>
  <path class="cls-3" d="M420.4,209.7h3159.2c115.9,0,210.7,92.3,210.7,205.2v599c0,112.9-94.8,205.2-210.7,205.2H420.4c-115.8,0-210.6-92.3-210.6-205.2V414.9c0-112.9,94.8-205.2,210.6-205.2Z"/>
  <circle class="cls-2" cx="706.5" cy="714.4" r="419.5"/>
  <path class="cls-3" d="M357,749.4c0-154.4,125.2-279.6,279.6-279.6h139.8v209.7h-139.8c-38.6,0-69.9,31.3-69.9,69.9v139.8h-209.7v-139.8Z"/>
  <path class="cls-3" d="M1056.1,679.5c0,154.4-125.2,279.6-279.6,279.6h-139.8v-209.7h139.8c38.6,0,69.9-31.3,69.9-69.9v-139.8h209.7v139.8Z"/>
  <path class="cls-2" d="M1491.9,1017.4c-29.9,0-58.4-3.4-85.5-10.2s-50.5-16.6-70.3-29.6v-144.8c22,13.6,48,25.6,77.9,36,29.9,10.5,57.6,15.7,83,15.7,41.2,0,61.8-16.4,61.8-49.1s-6.6-29.1-19.9-41.5c-13.3-12.4-29.2-26.3-47.8-41.5-28.2-23.1-50.7-47.8-67.3-74.1-16.7-26.3-25-57.7-25-94.4s9-68.5,27.1-97c18.1-28.5,43-50.8,75-66.9,31.9-16.1,69.3-24.1,112.2-24.1s64.4,3.8,94.9,11.4c30.5,7.6,58.1,18.5,83,32.6l-55.9,122.8c-19.2-9.6-39.4-18.1-60.6-25.4-21.2-7.3-41.1-11-59.7-11s-37.4,5.2-44.5,15.7c-7.1,10.5-10.6,20.5-10.6,30.1s4.5,24.7,13.5,36.8c9,12.2,26.8,28.1,53.4,47.9,33.3,24.9,57.6,50.4,72.8,76.6,15.2,26.3,22.9,56.3,22.9,90.2,0,60.4-19.9,107.8-59.7,142.3-39.8,34.4-96.7,51.7-170.6,51.7Z"/>
  <path class="cls-2" d="M1795.9,1009l127.9-604.7h161.8l-55.9,258.3,60.1-84.7,132.1-173.6h189.7l-227.8,278.6,111.8,326.1h-181.2l-72-238.8-39.8,22.9-44.9,216h-161.8Z"/>
  <path class="cls-2" d="M2607.2,1017.4c-77.4,0-135.4-21.2-174-63.5-38.7-42.3-58-98.8-58-169.4s6.6-93.3,19.9-139.3c13.3-46,33.3-87.9,60.1-125.8,26.8-37.8,60.8-68,102-90.6,41.2-22.6,89.8-33.9,145.7-33.9s131,21.3,169.4,63.9c38.4,42.6,57.6,99,57.6,169s-6.4,93.3-19.1,139.3c-12.7,46-32.3,87.9-58.9,125.8-26.5,37.8-60,68-100.4,90.6-40.4,22.6-88.5,33.9-144.4,33.9ZM2621.6,883.6c27.1,0,51.7-11.6,73.7-34.7,22-23.1,39.4-53.9,52.1-92.3,12.7-38.4,19.1-80.7,19.1-127s-6.6-56.3-19.9-74.1c-13.3-17.8-32.3-26.7-57.2-26.7s-43.2,7.5-61.8,22.4c-18.6,15-34.6,34.7-47.8,59.3-13.3,24.6-23.4,52-30.5,82.1-7.1,30.2-10.6,60.6-10.6,91,0,66.6,27.7,99.9,83,99.9Z"/>
  <path class="cls-2" d="M3052.7,1009l-43.2-604.7h158.4l10.2,304.9c.6,14.7.7,31.9.4,51.7-.3,19.8-1,38.8-2.1,57.2-1.1,18.4-2.5,33.2-4.2,44.5h3.4c5.1-22,11.9-45.2,20.3-69.4,8.5-24.3,15.5-42.9,21.2-55.9l144.8-332.8h171.1l-299.8,604.7h-180.4Z"/>
</svg>