<?xml version="1.0" encoding="UTF-8"?>
<svg id="Layer_1" data-name="Layer 1" xmlns="http://www.w3.org/2000/svg" version="1.1" viewBox="0 0 4000 1970">
  <defs>
    <style>
      .cls-1 {
        fill: #231f20;
      }

      .cls-1, .cls-2, .cls-3, .cls-4 {
        stroke-width: 0px;
      }

      .cls-2 {
        fill: none;
      }

      .cls-3 {
        fill: #00aeef;
        fill-rule: evenodd;
      }

      .cls-4 {
        fill: #fff;
      }
    </style>
  </defs>
  <rect class="cls-2" width="4000" height="1970"/>
  <path class="cls-3" d="M420.4,209.7h3159.2c115.9,0,210.7,92.3,210.7,205.2v599c0,112.9-94.8,205.2-210.7,205.2H420.4c-115.8,0-210.6-92.3-210.6-205.2V414.9c0-112.9,94.8-205.2,210.6-205.2Z"/>
  <circle class="cls-4" cx="706.5" cy="714.4" r="419.5"/>
  <path class="cls-3" d="M357,749.4c0-154.4,125.2-279.6,279.6-279.6h139.8v209.7h-139.8c-38.6,0-69.9,31.3-69.9,69.9v139.8h-209.7v-139.8Z"/>
  <path class="cls-3" d="M1056.1,679.5c0,154.4-125.2,279.6-279.6,279.6h-139.8v-209.7h139.8c38.6,0,69.9-31.3,69.9-69.9v-139.8h209.7v139.8Z"/>
  <g>
    <path class="cls-1" d="M699.6,1683.6c-26.9,0-47.9-8.2-63.2-24.7-15.2-16.5-22.9-39.1-22.9-67.8s1.7-29.1,5.1-44c3.4-14.9,8.5-29,15.4-42.3,6.9-13.3,15.6-25.2,26.1-35.7,10.5-10.5,22.8-18.8,36.8-24.9,14-6.1,29.8-9.1,47.4-9.1s42.2,4.5,58.9,13.6l-12.2,25.1c-6.1-3.2-12.9-5.9-20.5-8.3-7.6-2.4-16.3-3.6-26.3-3.6-16.9,0-31.6,3.8-43.9,11.3-12.3,7.6-22.5,17.6-30.7,30.1-8.1,12.5-14.2,26.4-18.1,41.7-4,15.2-5.9,30.4-5.9,45.6s5.2,36.8,15.7,48.6c10.5,11.9,25,17.8,43.5,17.8s18.3-.9,27.3-2.7c8.9-1.8,17.7-4.2,26.3-7.1v26.4c-8.8,3.2-17.7,5.6-26.6,7.5-8.9,1.8-19.7,2.7-32.4,2.7Z"/>
    <path class="cls-1" d="M797.2,1680.2l54.9-257.5h29.8l-54.9,257.5h-29.8Z"/>
    <path class="cls-1" d="M884.9,1680.2l38.6-181.6h29.8l-38.6,181.6h-29.8ZM947.6,1468.5c-4.7,0-8.6-1.4-11.7-4.2-3.1-2.8-4.6-6.7-4.6-11.7s1.7-11,5.3-15.2c3.5-4.3,8.4-6.4,14.7-6.4,10.4,0,15.6,5.1,15.6,15.2s-2,12.5-6.1,16.4c-4.1,4-8.5,5.9-13.2,5.9Z"/>
    <path class="cls-1" d="M972.3,1680.2l38.6-181.6h24.4l-3.7,33.5h1.7c4.1-5.6,8.9-11.3,14.4-16.9,5.5-5.6,11.9-10.4,19.1-14.2,7.2-3.8,15.5-5.8,24.7-5.8s22,3.6,28.8,10.8c6.8,7.2,10.8,17.1,12.2,29.5h1.4c4.5-6.6,9.9-12.9,16.1-19.1,6.2-6.2,13.2-11.3,20.8-15.2,7.7-3.9,16.1-5.9,25.4-5.9,14,0,24.8,3.8,32.5,11.5,7.7,7.7,11.5,18.7,11.5,33.2s-.3,10.5-1,15.2c-.7,4.7-1.6,9.6-2.7,14.6l-23.4,110.4h-30.1l24.4-113.8c.9-5,1.6-9.3,2.2-13,.6-3.7.8-7.3.8-10.7,0-6.8-1.9-12.2-5.6-16.3-3.7-4.1-9.5-6.1-17.4-6.1s-15.2,2.7-23.4,8.1c-8.1,5.4-15.8,13.9-22.9,25.4-7.1,11.5-12.6,26.3-16.4,44.4l-17.3,82h-29.8l24-113.8c2-10.2,3.1-17.6,3.1-22.4,0-7.5-1.7-13.3-5.1-17.4-3.4-4.2-9-6.3-16.9-6.3s-15,2.7-23.4,8c-8.4,5.3-16.1,13.9-23.4,25.9-7.2,12-13,27.9-17.3,47.8l-16.6,78.3h-29.8Z"/>
    <path class="cls-1" d="M1324.6,1683.6c-14.7,0-26.5-5.3-35.6-15.8-9-10.5-13.5-25.9-13.5-46.2s2.2-33,6.6-48.3c4.4-15.2,10.6-28.7,18.5-40.3,7.9-11.6,17.3-20.8,28.1-27.6,10.8-6.8,22.8-10.2,35.9-10.2s21.7,3.2,29.1,9.5c7.5,6.3,13,13.7,16.6,22h1.7l10.8-28.1h22.7l-38.6,181.6h-23.7l4.4-33.5h-1.4c-7.9,9.9-17,18.6-27.3,25.9-10.3,7.3-21.7,11-34.4,11ZM1334.4,1658.9c8.1,0,16.3-3,24.4-9.1,8.1-6.1,15.4-14.3,21.8-24.6,6.4-10.3,11.5-22,15.1-35.1,1.6-6.3,2.7-12.3,3.4-18,.7-5.6,1-10.8,1-15.6,0-10.6-2.9-19.3-8.8-26.1-5.9-6.8-13.8-10.2-23.7-10.2s-16.9,2.8-24.4,8.3c-7.5,5.5-14,13.1-19.6,22.7-5.6,9.6-10,20.5-13,32.7-3,12.2-4.6,25-4.6,38.3s2.5,21.3,7.4,27.4c5,6.1,12,9.1,21,9.1Z"/>
    <path class="cls-1" d="M1514.3,1683.6c-12.2,0-22.5-2.9-30.8-8.8-8.4-5.9-12.5-16.1-12.5-30.8s1-15.2,3.1-24.1l20.7-98.6h-28.1l2.7-13.5,30.5-12.9,21-37.6h17.6l-9.1,41.3h45.7l-4.7,22.7h-45.4l-21,98.9c-.7,2.9-1.4,6.3-2,10-.7,3.7-1,7.2-1,10.3,0,5.2,1.4,9.6,4.2,13.2,2.8,3.6,7.4,5.4,13.7,5.4s8-.4,11.9-1.2c3.8-.8,7.9-1.9,12.2-3.2v22.7c-2.7,1.4-6.9,2.7-12.5,4.1-5.6,1.4-11,2-15.9,2Z"/>
    <path class="cls-1" d="M1646.1,1683.6c-21,0-37.2-6.2-48.6-18.5-11.4-12.3-17.1-29-17.1-50s2.1-28.7,6.3-42.9c4.2-14.1,10.2-27,18.1-38.6,7.9-11.6,17.4-20.9,28.6-27.9,11.2-7,23.8-10.5,37.8-10.5s30.1,3.7,38.8,11.2c8.7,7.5,13,17.8,13,31.2s-3.7,22.8-11,32.4c-7.3,9.6-18.8,17.3-34.4,23-15.6,5.8-35.8,8.6-60.6,8.6h-5.8c-.2,2-.4,4.2-.5,6.4-.1,2.3-.2,4.3-.2,6.1,0,13.8,3.3,24.7,10,32.7,6.7,8,17,12,31,12s16.7-1.2,24.4-3.6c7.7-2.4,16-5.8,25.1-10.3v25.4c-8.6,3.8-17,7-25.2,9.5-8.2,2.5-18.1,3.7-29.6,3.7ZM1615.6,1577.6h2.4c13.5,0,26.1-1.2,37.6-3.6,11.5-2.4,20.8-6.3,27.8-11.9,7-5.5,10.5-12.9,10.5-22.2s-2-10.7-5.9-14.4c-4-3.7-10.1-5.6-18.5-5.6s-21.3,5-31.3,15.1c-10,10.1-17.6,24.2-22.5,42.5Z"/>
    <path class="cls-1" d="M1805,1761.5c-4.5,0-8.5-.3-12-1-3.5-.7-6.7-1.5-9.7-2.4v-25.1c3.2.9,6.2,1.7,9.1,2.5,2.9.8,6.2,1.2,9.8,1.2,8.1,0,14.5-3.3,19-10,4.5-6.7,8.1-16.2,10.8-28.6l37.3-176.8h-31.5l2.4-12.5,33.9-11.2,3.7-16.3c3.4-15.6,7.8-27.7,13.2-36.4,5.4-8.7,12.1-14.8,20-18.5,7.9-3.6,17.4-5.4,28.5-5.4s11.4.6,17.3,1.9c5.9,1.2,10.7,2.8,14.6,4.6l-7.8,22.7c-3.2-1.1-6.7-2.2-10.5-3.2-3.8-1-7.9-1.5-12.2-1.5-8.8,0-15.8,2.5-21,7.5-5.2,5-9.3,14.5-12.2,28.5l-4.1,17.3h39l-4.4,22.7h-39l-37.9,180.2c-4.1,18.7-10.4,33.4-19,44-8.6,10.6-21,15.9-37.3,15.9Z"/>
    <path class="cls-1" d="M2013,1683c-21,0-37.5-6.3-49.6-18.8-12.1-12.5-18.1-29.5-18.1-51s1.9-27.9,5.8-41.7c3.8-13.8,9.5-26.3,17.1-37.6,7.6-11.3,17-20.4,28.5-27.3,11.4-6.9,24.6-10.3,39.5-10.3,21.2,0,37.8,6.3,49.8,18.8,12,12.5,18,29.6,18,51.3s-1.9,27.6-5.8,41.3c-3.8,13.8-9.5,26.3-17.1,37.6-7.6,11.3-17,20.4-28.3,27.3-11.3,6.9-24.5,10.3-39.6,10.3ZM2014.6,1658.2c10.6,0,20.4-3.8,29.3-11.3,8.9-7.6,16-18.5,21.3-32.7,5.3-14.2,8-31.3,8-51.2s-1.2-13.4-3.6-19.8c-2.4-6.4-6.3-11.7-11.7-15.9-5.4-4.2-12.7-6.3-21.7-6.3s-23.2,4.2-32.4,12.7c-9.1,8.5-16.2,19.8-21.2,33.9-5,14.1-7.5,29.6-7.5,46.6s3.4,24.8,10.3,32.5c6.9,7.7,16.5,11.5,29,11.5Z"/>
    <path class="cls-1" d="M2129.1,1680.2l38.6-181.6h24.4l-3.7,33.5h1.7c4.7-6.1,9.7-12,14.9-17.6,5.2-5.6,11.1-10.3,17.6-13.9,6.5-3.6,14.1-5.4,22.7-5.4s6.5.2,10,.5c3.5.3,6.7,1,9.7,1.9l-6.4,26.8c-6.1-1.4-11.9-2-17.3-2-11.3,0-21.3,3.7-30.1,11.2-8.8,7.5-16.2,16.9-22,28.5-5.9,11.5-10.1,23.3-12.5,35.2l-17.6,83h-29.8Z"/>
    <path class="cls-1" d="M2458.8,1683.6c-28.7,0-51.2-8-67.4-24.1-16.3-16-24.4-38.4-24.4-67.1s3.1-42.7,9.3-61.8c6.2-19.1,15.1-35.8,26.8-50.1,11.6-14.3,25.4-25.5,41.3-33.5,15.9-8,33.6-12,53-12s27.5,1.2,38.6,3.7c11.1,2.5,21.6,6,31.5,10.5l-11.5,26.4c-8.6-3.6-17.7-6.8-27.3-9.7-9.6-2.8-20.2-4.2-31.7-4.2-18.5,0-35.2,5.5-50,16.6-14.8,11.1-26.5,26.3-35.1,45.6-8.6,19.3-12.9,41.5-12.9,66.6s2.2,23.7,6.6,33.7c4.4,10,11.2,18,20.5,23.9,9.3,5.9,21.1,8.8,35.6,8.8s16.4-.6,23.5-1.9c7.1-1.2,13.2-2.7,18.1-4.2l15.6-71.5h-47.4l5.8-26.4h77.6l-25.7,118.2c-10.2,3.6-20.9,6.6-32.2,9-11.3,2.4-24,3.6-38.3,3.6Z"/>
    <path class="cls-1" d="M2581.7,1680.2l38.6-181.6h24.4l-3.7,33.5h1.7c4.7-6.1,9.7-12,14.9-17.6,5.2-5.6,11.1-10.3,17.6-13.9,6.5-3.6,14.1-5.4,22.7-5.4s6.5.2,10,.5c3.5.3,6.7,1,9.7,1.9l-6.4,26.8c-6.1-1.4-11.9-2-17.3-2-11.3,0-21.3,3.7-30.1,11.2-8.8,7.5-16.2,16.9-22,28.5-5.9,11.5-10.1,23.3-12.5,35.2l-17.6,83h-29.8Z"/>
    <path class="cls-1" d="M2784.3,1683c-21,0-37.5-6.3-49.6-18.8-12.1-12.5-18.1-29.5-18.1-51s1.9-27.9,5.8-41.7c3.8-13.8,9.5-26.3,17.1-37.6,7.6-11.3,17-20.4,28.5-27.3,11.4-6.9,24.6-10.3,39.5-10.3,21.2,0,37.8,6.3,49.8,18.8,12,12.5,18,29.6,18,51.3s-1.9,27.6-5.8,41.3c-3.8,13.8-9.5,26.3-17.1,37.6-7.6,11.3-17,20.4-28.3,27.3-11.3,6.9-24.5,10.3-39.6,10.3ZM2786,1658.2c10.6,0,20.4-3.8,29.3-11.3,8.9-7.6,16-18.5,21.3-32.7,5.3-14.2,8-31.3,8-51.2s-1.2-13.4-3.6-19.8-6.3-11.7-11.7-15.9c-5.4-4.2-12.7-6.3-21.7-6.3s-23.2,4.2-32.4,12.7c-9.1,8.5-16.2,19.8-21.2,33.9-5,14.1-7.5,29.6-7.5,46.6s3.4,24.8,10.3,32.5c6.9,7.7,16.5,11.5,29,11.5Z"/>
    <path class="cls-1" d="M2911,1680.2l-7.5-181.6h29.1l2.7,96.9c.2,12.4.2,23.7-.2,33.7-.3,10-.7,18.4-1.2,24.9h1.4c1.6-4.7,3.7-10.3,6.3-16.8,2.6-6.4,5.3-12.9,8.1-19.3,2.8-6.4,5.4-12,7.6-16.8l47.8-102.6h32.2l5.8,97.2c.2,8.4.5,18,.7,29,.2,11,.1,20.7-.3,29.3h1.4c2.9-8.6,6.7-18.7,11.2-30.3,4.5-11.6,9.5-23.7,14.9-36.1l39.6-89.1h31.5l-84,181.6h-35.9l-5.1-98.2c-.5-9-.6-17.7-.5-26.1.1-8.4.2-17.8.2-28.5h-1.4c-2.9,8.4-5.9,16.1-9,23.2-3,7.1-7.3,16.4-12.7,27.9l-47.4,101.6h-35.2Z"/>
    <path class="cls-1" d="M3191.8,1683.6c-12.2,0-22.5-2.9-30.8-8.8-8.4-5.9-12.5-16.1-12.5-30.8s1-15.2,3.1-24.1l20.7-98.6h-28.1l2.7-13.5,30.5-12.9,21-37.6h17.6l-9.1,41.3h45.7l-4.7,22.7h-45.4l-21,98.9c-.7,2.9-1.4,6.3-2,10-.7,3.7-1,7.2-1,10.3,0,5.2,1.4,9.6,4.2,13.2,2.8,3.6,7.4,5.4,13.7,5.4s8-.4,11.9-1.2c3.8-.8,7.9-1.9,12.2-3.2v22.7c-2.7,1.4-6.9,2.7-12.5,4.1-5.6,1.4-11,2-15.9,2Z"/>
    <path class="cls-1" d="M3251.1,1680.2l54.5-257.5h29.8l-14.6,66.7c-1.4,6.8-3.1,13.8-5.1,21.2-2,7.3-4,14.6-5.8,21.8h1.7c4.3-5.6,9.4-11.3,15.2-16.9,5.9-5.6,12.6-10.4,20.2-14.2,7.6-3.8,16.2-5.8,25.9-5.8,14,0,25.1,3.9,33.4,11.7,8.2,7.8,12.4,19.4,12.4,34.7s-.4,9-1.2,13.5c-.8,4.5-1.6,9.3-2.5,14.2l-23.7,110.4h-29.8l24-113.8c2-10.2,3-17.6,3-22.4,0-7.5-1.9-13.3-5.6-17.4-3.7-4.2-9.8-6.3-18.1-6.3s-16,2.7-24.9,8c-8.9,5.3-17.2,13.9-24.7,25.9-7.6,12-13.5,27.9-17.8,47.8l-16.6,78.3h-29.8Z"/>
  </g>
  <path class="cls-4" d="M1491.9,1017.4c-29.9,0-58.4-3.4-85.5-10.2s-50.5-16.6-70.3-29.6v-144.8c22,13.6,48,25.6,77.9,36,29.9,10.5,57.6,15.7,83,15.7,41.2,0,61.8-16.4,61.8-49.1s-6.6-29.1-19.9-41.5c-13.3-12.4-29.2-26.3-47.8-41.5-28.2-23.1-50.7-47.8-67.3-74.1-16.7-26.3-25-57.7-25-94.4s9-68.5,27.1-97c18.1-28.5,43-50.8,75-66.9,31.9-16.1,69.3-24.1,112.2-24.1s64.4,3.8,94.9,11.4c30.5,7.6,58.1,18.5,83,32.6l-55.9,122.8c-19.2-9.6-39.4-18.1-60.6-25.4-21.2-7.3-41.1-11-59.7-11s-37.4,5.2-44.5,15.7c-7.1,10.5-10.6,20.5-10.6,30.1s4.5,24.7,13.5,36.8c9,12.2,26.8,28.1,53.4,47.9,33.3,24.9,57.6,50.4,72.8,76.6,15.2,26.3,22.9,56.3,22.9,90.2,0,60.4-19.9,107.8-59.7,142.3-39.8,34.4-96.7,51.7-170.6,51.7Z"/>
  <path class="cls-4" d="M1795.9,1009l127.9-604.7h161.8l-55.9,258.3,60.1-84.7,132.1-173.6h189.7l-227.8,278.6,111.8,326.1h-181.2l-72-238.8-39.8,22.9-44.9,216h-161.8Z"/>
  <path class="cls-4" d="M2607.2,1017.4c-77.4,0-135.4-21.2-174-63.5-38.7-42.3-58-98.8-58-169.4s6.6-93.3,19.9-139.3c13.3-46,33.3-87.9,60.1-125.8,26.8-37.8,60.8-68,102-90.6,41.2-22.6,89.8-33.9,145.7-33.9s131,21.3,169.4,63.9c38.4,42.6,57.6,99,57.6,169s-6.4,93.3-19.1,139.3c-12.7,46-32.3,87.9-58.9,125.8-26.5,37.8-60,68-100.4,90.6-40.4,22.6-88.5,33.9-144.4,33.9ZM2621.6,883.6c27.1,0,51.7-11.6,73.7-34.7,22-23.1,39.4-53.9,52.1-92.3,12.7-38.4,19.1-80.7,19.1-127s-6.6-56.3-19.9-74.1c-13.3-17.8-32.3-26.7-57.2-26.7s-43.2,7.5-61.8,22.4c-18.6,15-34.6,34.7-47.8,59.3-13.3,24.6-23.4,52-30.5,82.1-7.1,30.2-10.6,60.6-10.6,91,0,66.6,27.7,99.9,83,99.9Z"/>
  <path class="cls-4" d="M3052.7,1009l-43.2-604.7h158.4l10.2,304.9c.6,14.7.7,31.9.4,51.7-.3,19.8-1,38.8-2.1,57.2-1.1,18.4-2.5,33.2-4.2,44.5h3.4c5.1-22,11.9-45.2,20.3-69.4,8.5-24.3,15.5-42.9,21.2-55.9l144.8-332.8h171.1l-299.8,604.7h-180.4Z"/>
</svg>